HIERARCHY
ROOT Hips
{
	OFFSET 0.000000 89.005402 0.000000
	CHANNELS 6 Xposition Yposition Zposition Xrotation Yrotation Zrotation
	JOINT Spine
	{
		OFFSET 0.116900 10.681000 0.373400
		CHANNELS 3 Xrotation Yrotation Zrotation
		JOINT Spine1
		{
			OFFSET 0.000000 13.840401 0.053500
			CHANNELS 3 Xrotation Yrotation Zrotation
			JOINT Spine2
			{
				OFFSET 0.000000 14.712700 -0.366200
				CHANNELS 3 Xrotation Yrotation Zrotation
				JOINT Neck
				{
					OFFSET 0.000000 35.415497 -3.314200
					CHANNELS 3 Xrotation Yrotation Zrotation
					JOINT Head
					{
						OFFSET 0.000000 16.899200 1.218300
						CHANNELS 3 Xrotation Yrotation Zrotation
						JOINT HeadTop_End
						{
							OFFSET 0.000000 22.206207 2.192500
							CHANNELS 3 Xrotation Yrotation Zrotation
							End Site
							{
								OFFSET 0.000000 22.314178 0.000000
							}
						}
					}
				}
				JOINT LeftShoulder
				{
					OFFSET 12.896400 26.716293 -4.548400
					CHANNELS 3 Xrotation Yrotation Zrotation
					JOINT LeftArm
					{
						OFFSET 19.027000 -4.857010 -1.718400
						CHANNELS 3 Xrotation Yrotation Zrotation
						JOINT LeftForeArm
						{
							OFFSET 24.179897 0.000000 0.000000
							CHANNELS 3 Xrotation Yrotation Zrotation
							JOINT LeftHand
							{
								OFFSET 27.156403 0.000000 0.000000
								CHANNELS 3 Xrotation Yrotation Zrotation
								JOINT LeftHandIndex1
								{
									OFFSET 16.441200 0.000000 0.000000
									CHANNELS 3 Xrotation Yrotation Zrotation
									JOINT LeftHandIndex2
									{
										OFFSET 4.821899 0.000000 0.000000
										CHANNELS 3 Xrotation Yrotation Zrotation
										JOINT LeftHandIndex3
										{
											OFFSET 6.386497 0.000000 0.000000
											CHANNELS 3 Xrotation Yrotation Zrotation
											JOINT LeftHandIndex4
											{
												OFFSET 5.188988 0.000000 0.000000
												CHANNELS 3 Xrotation Yrotation Zrotation
												End Site
												{
													OFFSET -0.178703 5.185913 0.000177
												}
											}
										}
									}
								}
								JOINT LeftHandThumb1
								{
									OFFSET 6.534897 -5.032593 5.900300
									CHANNELS 3 Xrotation Yrotation Zrotation
									JOINT LeftHandThumb2
									{
										OFFSET 3.818176 -2.204422 2.204423
										CHANNELS 3 Xrotation Yrotation Zrotation
										JOINT LeftHandThumb3
										{
											OFFSET 3.252098 -1.877594 1.877601
											CHANNELS 3 Xrotation Yrotation Zrotation
											JOINT LeftHandThumb4
											{
												OFFSET 5.251778 -3.032120 3.032117
												CHANNELS 3 Xrotation Yrotation Zrotation
												End Site
												{
													OFFSET 0.000023 6.780014 0.000000
												}
											}
										}
									}
								}
							}
						}
					}
				}
				JOINT RightShoulder
				{
					OFFSET -12.896300 26.716293 -4.548400
					CHANNELS 3 Xrotation Yrotation Zrotation
					JOINT RightArm
					{
						OFFSET -19.027000 -4.857010 -1.718400
						CHANNELS 3 Xrotation Yrotation Zrotation
						JOINT RightForeArm
						{
							OFFSET -24.179897 0.000000 0.000000
							CHANNELS 3 Xrotation Yrotation Zrotation
							JOINT RightHand
							{
								OFFSET -27.156403 0.000000 0.000000
								CHANNELS 3 Xrotation Yrotation Zrotation
								JOINT RightHandThumb1
								{
									OFFSET -6.591202 -4.852203 5.988100
									CHANNELS 3 Xrotation Yrotation Zrotation
									JOINT RightHandThumb2
									{
										OFFSET -3.818176 -2.204422 2.204423
										CHANNELS 3 Xrotation Yrotation Zrotation
										JOINT RightHandThumb3
										{
											OFFSET -3.252098 -1.877594 1.877601
											CHANNELS 3 Xrotation Yrotation Zrotation
											JOINT RightHandThumb4
											{
												OFFSET -5.251778 -3.032120 3.032117
												CHANNELS 3 Xrotation Yrotation Zrotation
												End Site
												{
													OFFSET -0.000023 6.780014 0.000000
												}
											}
										}
									}
								}
								JOINT RightHandIndex1
								{
									OFFSET -16.029404 0.000000 0.000000
									CHANNELS 3 Xrotation Yrotation Zrotation
									JOINT RightHandIndex2
									{
										OFFSET -5.213303 0.000000 0.000000
										CHANNELS 3 Xrotation Yrotation Zrotation
										JOINT RightHandIndex3
										{
											OFFSET -6.386528 0.000000 0.000000
											CHANNELS 3 Xrotation Yrotation Zrotation
											JOINT RightHandIndex4
											{
												OFFSET -5.189026 0.000000 0.000000
												CHANNELS 3 Xrotation Yrotation Zrotation
												End Site
												{
													OFFSET 0.236702 5.183624 0.001972
												}
											}
										}
									}
								}
							}
						}
					}
				}
			}
		}
	}
	JOINT LeftUpLeg
	{
		OFFSET 14.073000 -7.904099 -1.463000
		CHANNELS 3 Xrotation Yrotation Zrotation
		JOINT LeftLeg
		{
			OFFSET -0.109806 -34.073280 4.093200
			CHANNELS 3 Xrotation Yrotation Zrotation
			JOINT LeftFoot
			{
				OFFSET 0.109806 -29.899420 -6.319000
				CHANNELS 3 Xrotation Yrotation Zrotation
				JOINT LeftToeBase
				{
					OFFSET 1.551100 -14.988700 20.535801
					CHANNELS 3 Xrotation Yrotation Zrotation
					JOINT LeftToe_End
					{
						OFFSET 0.221200 0.570800 13.248301
						CHANNELS 3 Xrotation Yrotation Zrotation
						End Site
						{
							OFFSET 0.000000 13.262435 0.000000
						}
					}
				}
			}
		}
	}
	JOINT RightUpLeg
	{
		OFFSET -13.839300 -7.904099 -1.463000
		CHANNELS 3 Xrotation Yrotation Zrotation
		JOINT RightLeg
		{
			OFFSET 0.109694 -34.073219 4.093300
			CHANNELS 3 Xrotation Yrotation Zrotation
			JOINT RightFoot
			{
				OFFSET -0.109694 -29.899384 -6.319200
				CHANNELS 3 Xrotation Yrotation Zrotation
				JOINT RightToeBase
				{
					OFFSET -1.551100 -14.988700 20.535801
					CHANNELS 3 Xrotation Yrotation Zrotation
					JOINT RightToe_End
					{
						OFFSET -0.221200 0.570900 13.248299
						CHANNELS 3 Xrotation Yrotation Zrotation
						End Site
						{
							OFFSET 0.000000 13.262440 0.000000
						}
					}
				}
			}
		}
	}
}
MOTION
Frames: 5
Frame Time: 0.033333
-1.537072 87.038216 0.919084 -12.637583 -47.303496 -11.835318 3.597991 0.105553 1.894543 7.265849 0.663840 2.295703 7.262513 0.702874 2.292264 2.414552 5.150910 -4.234205 5.227438 21.586767 -6.620437 0.000000 -0.000002 0.000000 0.440290 2.652571 -4.936911 -48.087318 1.907453 -33.074389 0.040785 -91.203782 0.040797 14.307835 0.266856 8.359373 0.077485 1.032177 -8.585903 0.077480 1.032165 -8.585954 0.077482 1.032159 -8.585935 0.000001 -0.000002 -0.000002 -13.681245 -0.392786 11.541754 3.946763 7.971415 0.752860 -0.575606 1.586261 2.542380 -0.000003 -0.000001 -0.000001 0.994668 0.965432 8.105158 -44.277347 40.523495 49.279617 0.000150 109.855267 -0.000147 1.110658 10.824088 -6.978263 -4.547253 13.417132 -19.201564 4.645110 -8.657009 -0.231391 -1.269794 0.125950 -2.098708 0.000000 -0.000001 0.000000 0.046096 -0.801019 6.587887 0.046102 -0.801032 6.587974 0.046113 -0.801048 6.587914 0.000002 -0.000001 0.000001 -13.556289 17.308053 26.476590 9.671208 -9.834660 -0.883761 7.942942 -9.193408 -20.413337 0.000004 -0.000003 0.000005 0.000000 0.000002 0.000000 3.499511 -7.123935 -0.768165 26.110060 -2.403498 -0.133435 -22.153158 0.442232 0.526248 -0.000007 0.000004 0.000002 0.000000 0.000003 -0.000000 
-1.276389 87.005203 0.923337 -12.424591 -47.404470 -11.727806 3.657786 0.110809 1.861068 7.382666 0.671876 2.246072 7.379301 0.711246 2.242572 2.316599 5.178919 -4.277839 4.744746 21.694940 -6.516683 0.000001 -0.000001 -0.000000 0.444794 2.665350 -5.043994 -48.230910 1.700254 -32.866194 0.021921 -91.484640 0.021954 12.831249 0.702912 8.335647 0.077485 1.032176 -8.585897 0.077482 1.032168 -8.585949 0.077479 1.032158 -8.585935 0.000001 -0.000001 -0.000000 -13.681245 -0.392790 11.541754 3.946763 7.971414 0.752860 -0.575604 1.586259 2.542382 -0.000001 -0.000000 0.000000 0.988372 0.955913 8.067275 -43.857242 40.463502 49.256712 0.000091 109.530225 -0.000100 1.151771 10.929707 -7.024622 -4.547248 13.417134 -19.201564 4.645105 -8.657008 -0.231387 -1.269795 0.125950 -2.098707 0.000001 0.000001 -0.000001 0.046102 -0.801019 6.587894 0.046105 -0.801037 6.587977 0.046111 -0.801051 6.587918 -0.000000 0.000003 -0.000002 -13.851512 17.295694 26.381192 9.747378 -9.822928 -0.885248 7.918354 -9.189729 -20.274877 0.000004 0.000007 0.000003 0.000000 0.000002 0.000000 2.986571 -6.970737 -0.890748 26.364747 -2.456665 -0.137849 -22.048054 0.425488 0.674527 0.000003 0.000031 -0.000002 0.000000 -0.000003 -0.000000 
-1.006577 86.957062 0.936697 -12.126503 -47.495237 -11.609999 3.730263 0.126799 1.816407 7.523541 0.700414 2.200545 7.520071 0.739939 2.196986 2.135430 5.201440 -4.319944 4.314862 21.729009 -6.406095 0.000001 0.000001 0.000000 0.442789 2.661589 -5.001363 -48.414543 1.694942 -32.846858 0.005147 -91.733416 0.005187 12.451303 0.916603 8.599770 0.077485 1.032177 -8.585903 0.077481 1.032171 -8.585948 0.077479 1.032150 -8.585936 -0.000001 0.000001 0.000002 -13.681245 -0.392787 11.541747 3.946757 7.971414 0.752860 -0.575602 1.586260 2.542379 0.000002 0.000003 0.000000 0.992695 0.965547 8.090700 -43.300346 40.467518 49.021900 0.000013 108.937453 -0.000003 1.061403 11.204531 -7.372043 -4.547251 13.417134 -19.201564 4.645112 -8.657009 -0.231388 -1.269797 0.125952 -2.098708 0.000000 0.000001 -0.000000 0.046103 -0.801018 6.587886 0.046101 -0.801034 6.587974 0.046110 -0.801046 6.587920 -0.000001 0.000001 -0.000000 -14.296707 17.314275 26.334648 9.905227 -9.838604 -0.885629 7.942131 -9.168487 -19.909141 -0.000003 0.000022 -0.000003 -0.000000 0.000000 -0.000000 2.420993 -6.818920 -0.960653 26.619849 -2.527351 -0.145517 -21.937004 0.405723 0.840666 -0.000004 -0.000013 -0.000001 0.000000 -0.000001 0.000000 
-0.712648 86.869560 0.989865 -11.520388 -47.628729 -11.285568 3.769613 0.156065 1.750591 7.597426 0.750483 2.112815 7.593729 0.789871 2.109235 1.980290 5.183154 -4.288830 3.699852 21.717809 -6.380220 -0.000000 -0.000001 0.000000 0.434408 2.658440 -4.857470 -48.471373 1.662033 -32.868762 0.003936 -92.045671 0.004042 11.753878 1.229955 8.565938 0.077487 1.032176 -8.585898 0.077481 1.032174 -8.585949 0.077481 1.032157 -8.585932 -0.000002 0.000001 0.000002 -13.681245 -0.392783 11.541751 3.946758 7.971412 0.752857 -0.575605 1.586256 2.542381 -0.000001 0.000002 -0.000002 1.003691 0.988378 8.151435 -42.360997 40.493722 48.674786 0.000046 108.129900 -0.000041 0.975307 11.123785 -7.685073 -4.547249 13.417130 -19.201559 4.645109 -8.657010 -0.231386 -1.269797 0.125950 -2.098706 0.000003 -0.000000 0.000001 0.046102 -0.801022 6.587892 0.046102 -0.801034 6.587977 0.046110 -0.801048 6.587913 0.000001 -0.000000 -0.000000 -14.951745 17.339502 26.273007 10.163174 -9.884323 -0.883211 7.654999 -9.002812 -19.542329 0.000005 0.000003 0.000001 0.000000 -0.000001 -0.000000 1.555087 -6.638249 -1.052977 27.023013 -2.603679 -0.154867 -21.881126 0.368929 1.047564 0.000005 -0.000032 -0.000000 -0.000000 0.000001 0.000000 
-0.403194 86.722725 1.081266 -10.462537 -47.792155 -10.675247 3.750231 0.190960 1.613281 7.551598 0.795315 1.948243 7.547787 0.833164 1.944834 1.784322 5.167567 -4.062538 3.187794 21.920883 -6.323153 0.000000 0.000002 -0.000001 0.426735 2.583662 -4.534306 -48.218448 1.780824 -32.801355 -0.002217 -92.615084 -0.002184 9.975394 1.498955 8.282792 0.077484 1.032174 -8.585900 0.077480 1.032169 -8.585947 0.077481 1.032154 -8.585936 -0.000002 0.000001 0.000001 -13.681245 -0.392787 11.541748 3.946761 7.971414 0.752857 -0.575604 1.586261 2.542380 -0.000002 -0.000002 0.000000 1.028265 1.037650 8.287337 -40.943016 40.743622 48.313968 0.000105 106.948038 -0.000110 1.014271 10.931903 -8.203811 -4.547254 13.417129 -19.201561 4.645107 -8.657008 -0.231389 -1.269795 0.125951 -2.098711 0.000003 -0.000000 0.000001 0.046097 -0.801023 6.587888 0.046104 -0.801034 6.587974 0.046111 -0.801048 6.587916 0.000002 -0.000003 0.000003 -15.940268 17.324206 26.256560 10.489972 -9.853765 -0.882800 7.128475 -8.846960 -19.230749 0.000026 0.000023 -0.000001 0.000000 0.000001 0.000000 0.282418 -6.449614 -1.130850 27.616997 -2.682380 -0.164302 -21.903863 0.302371 1.294317 -0.000004 0.000001 0.000004 0.000000 0.000001 0.000000 
